<?xml version="1.0" standalone="no"?>
<!DOCTYPE svg PUBLIC "-//W3C//DTD SVG 20010904//EN"
 "http://www.w3.org/TR/2001/REC-SVG-20010904/DTD/svg10.dtd">
<svg version="1.0" xmlns="http://www.w3.org/2000/svg"
 width="500.000000pt" height="500.000000pt" viewBox="0 0 500.000000 500.000000"
 preserveAspectRatio="xMidYMid meet">

<g transform="translate(0.000000,500.000000) scale(0.100000,-0.100000)"
fill="#000000" stroke="none">
<path d="M3742 3338 c-10 -10 14 -39 109 -134 l122 -123 -62 -70 c-67 -76 -60
-73 -141 -51 -24 6 -70 -6 -70 -19 0 -3 25 -19 56 -35 59 -31 86 -64 106 -128
6 -21 12 -38 14 -38 20 0 53 26 50 39 -3 9 -8 30 -11 46 -4 17 -9 37 -11 46
-3 11 17 34 60 68 35 28 68 51 73 51 6 0 35 -27 66 -60 31 -33 82 -88 114
-121 45 -48 60 -59 72 -52 37 23 14 81 -93 232 -25 36 -46 69 -46 74 0 6 36
48 81 94 88 92 94 111 47 146 -35 26 -52 19 -141 -63 l-68 -63 -87 60 c-161
111 -210 131 -240 101z"/>
<path d="M3418 3255 c-185 -45 -348 -176 -429 -345 l-32 -65 -183 3 -184 4 0
-366 0 -366 95 0 95 0 2 263 3 262 64 -2 c122 -3 176 -50 175 -153 0 -32 -7
-68 -17 -87 -22 -42 -83 -73 -142 -73 l-45 0 0 -106 0 -107 79 5 c137 8 231
72 290 197 37 79 43 230 11 312 -25 67 -87 142 -141 170 -22 11 -39 24 -39 30
0 36 64 133 135 205 84 84 153 126 264 158 61 18 212 21 276 6 22 -5 41 -7 43
-6 1 2 -12 20 -31 40 l-34 36 -99 -1 c-55 0 -125 -7 -156 -14z"/>
<path d="M2165 2859 c-51 -12 -96 -43 -124 -85 -47 -68 -50 -93 -51 -381 l0
-273 95 0 95 0 0 90 0 90 30 0 30 0 0 90 0 90 -30 0 -30 0 0 68 c0 73 17 112
49 112 37 0 41 -20 43 -281 l3 -254 98 -3 97 -3 0 253 c0 348 -20 427 -114
472 -43 20 -139 28 -191 15z"/>
<path d="M850 2842 c0 -24 280 -754 284 -742 3 8 42 112 86 230 44 118 101
271 127 340 25 69 49 128 52 132 4 4 43 -56 89 -134 l82 -141 0 -203 0 -204
95 0 95 0 0 203 0 202 94 163 94 162 -96 0 -97 0 -44 -76 c-50 -87 -45 -88
-104 19 l-32 57 -187 0 -187 0 -25 -82 c-13 -46 -28 -95 -31 -110 -4 -16 -10
-28 -14 -28 -4 0 -20 50 -36 110 l-28 110 -108 0 c-60 0 -109 -3 -109 -8z"/>
<path d="M3330 2485 l0 -365 95 0 95 0 0 140 0 140 25 0 c25 0 25 0 25 95 0
95 0 95 -25 95 l-25 0 0 130 0 130 -95 0 -95 0 0 -365z"/>
<path d="M3620 2485 l0 -366 93 3 92 3 3 363 2 362 -95 0 -95 0 0 -365z"/>
<path d="M4157 2659 c13 -238 -111 -455 -322 -562 -180 -91 -398 -82 -571 23
-62 37 -64 38 -85 21 l-22 -18 34 -25 c61 -46 165 -92 253 -113 46 -10 216 -7
271 5 79 17 224 93 287 150 126 113 203 277 214 454 l6 91 -35 34 -36 34 6
-94z"/>
<path d="M893 1943 c-7 -2 -13 -10 -13 -17 0 -10 17 -13 58 -12 52 1 57 -1 60
-22 2 -12 -3 -24 -10 -27 -103 -36 -126 -47 -136 -70 -12 -27 -8 -50 16 -77
19 -23 87 -25 96 -3 4 11 -1 15 -17 15 -33 0 -49 15 -45 41 3 23 25 38 76 54
21 6 22 4 22 -54 0 -57 1 -61 24 -61 20 0 24 6 30 46 12 91 7 160 -12 177 -18
16 -118 23 -149 10z"/>
<path d="M1158 1930 c-56 -44 -64 -149 -15 -198 35 -34 133 -45 154 -16 21 29
16 33 -35 27 -54 -6 -89 15 -94 57 -3 25 -2 25 80 28 73 2 82 5 82 22 0 29
-19 72 -38 86 -27 21 -105 17 -134 -6z m108 -35 c22 -34 11 -45 -47 -45 -42 0
-49 3 -49 19 0 22 35 51 62 51 10 0 25 -11 34 -25z"/>
<path d="M1380 1861 c0 -49 -3 -103 -6 -120 -6 -29 -5 -31 25 -31 l31 0 0 68
c0 80 15 113 55 126 17 6 31 11 33 12 1 0 0 9 -4 18 -8 20 -38 21 -58 1 -8 -8
-17 -15 -20 -15 -3 0 -6 7 -6 15 0 9 -9 15 -25 15 -25 0 -25 -1 -25 -89z"/>
<path d="M1602 1934 c-46 -32 -65 -108 -42 -168 21 -57 113 -83 171 -49 30 18
59 76 59 119 0 39 -28 90 -56 103 -36 16 -106 14 -132 -5z m110 -41 c13 -11
18 -30 18 -64 0 -39 -4 -51 -26 -68 -33 -26 -45 -26 -75 -2 -48 38 -19 151 38
151 15 0 35 -7 45 -17z"/>
<path d="M1872 1943 c-7 -3 -18 -16 -23 -30 -11 -31 2 -58 47 -96 56 -47 36
-88 -36 -72 -25 6 -30 4 -30 -13 0 -35 92 -45 130 -14 36 29 29 67 -20 117
-52 53 -49 75 10 75 34 0 41 3 38 18 -2 13 -14 17 -53 19 -28 1 -56 -1 -63 -4z"/>
<path d="M2069 1943 c-14 -3 -18 -31 -25 -173 l-9 -170 28 0 c27 0 27 1 27 65
0 69 8 78 44 50 75 -57 165 47 136 155 -16 59 -50 80 -124 79 -33 -1 -68 -3
-77 -6z m135 -55 c25 -35 20 -94 -9 -123 -30 -31 -42 -31 -72 -3 -19 18 -23
32 -23 78 0 31 3 60 7 63 3 4 23 7 44 7 28 0 42 -6 53 -22z"/>
<path d="M2363 1943 c-7 -2 -13 -10 -13 -17 0 -10 17 -13 58 -12 54 1 57 0 57
-23 0 -20 -10 -27 -64 -46 -72 -26 -77 -30 -86 -65 -10 -41 27 -80 75 -80 24
0 40 5 44 15 4 11 -1 15 -17 15 -33 0 -49 15 -45 41 3 23 25 38 76 54 21 6 22
4 22 -54 0 -57 1 -61 24 -61 22 0 23 3 30 102 7 98 6 104 -14 120 -21 17 -115
24 -147 11z"/>
<path d="M2623 1932 c-28 -21 -43 -62 -43 -113 0 -80 47 -124 126 -117 31 2
40 7 42 25 3 20 -1 22 -36 20 -48 -1 -69 14 -78 58 -12 65 37 115 101 103 21
-4 25 -1 25 18 0 22 -4 24 -57 24 -40 0 -65 -6 -80 -18z"/>
<path d="M2845 1928 c-50 -44 -53 -159 -5 -203 39 -35 160 -32 160 5 0 17 -5
18 -49 13 -41 -5 -52 -2 -70 16 -11 11 -21 32 -21 46 0 25 1 25 80 25 l80 0 0
35 c0 54 -36 85 -99 85 -37 0 -56 -6 -76 -22z m109 -24 c9 -8 16 -24 16 -35 0
-16 -7 -19 -55 -19 -61 0 -71 14 -35 50 24 24 53 26 74 4z"/>
</g>
</svg>
